<?xml version="1.0" encoding="iso-8859-1"?>
<!-- Generator: Adobe Illustrator 19.0.0, SVG Export Plug-In . SVG Version: 6.00 Build 0)  -->
<svg version="1.1" id="Layer_1" xmlns="http://www.w3.org/2000/svg" xmlns:xlink="http://www.w3.org/1999/xlink" x="0px" y="0px"
	 viewBox="0 0 507.6 507.6" style="enable-background:new 0 0 507.6 507.6;" xml:space="preserve">
<g>
	<rect x="65.8" y="477.6" style="fill:#E07D46;" width="40" height="24"/>
	<rect x="401.8" y="477.6" style="fill:#E07D46;" width="40" height="24"/>
</g>
<g>
	<rect x="49.8" y="157.6" style="fill:#EDC654;" width="412" height="160"/>
	<path style="fill:#EDC654;" d="M457.8,317.6H49.4c-0.8,0,0.4,0,0.4-0.8V460c0,7.6,4.4,13.6,12,13.6h384c7.6,0,16-6,16-13.6V316.8
		C461.8,317.2,458.6,317.6,457.8,317.6z"/>
	<path style="fill:#EDC654;" d="M461.8,157.6V20c0-7.6-8.4-14.4-16-14.4h-384c-7.6,0-12,6.4-12,14.4v137.6H461.8z"/>
</g>
<g>
	<path style="fill:#EF934A;" d="M337.8,104c-4.4,0-8-3.6-8-8V84c0-4.4-3.6-6.4-8-6.4h-136c-4.4,0-8,2-8,6.4v12c0,4.4-3.6,8-8,8
		s-8-3.6-8-8V84c0-13.2,10.8-22.4,24-22.4h136c13.2,0,24,9.2,24,22.4v12C345.8,100.4,342.2,104,337.8,104z"/>
	<path style="fill:#EF934A;" d="M337.8,260c-4.4,0-8-3.6-8-8v-12c0-4.4-3.6-6.4-8-6.4h-136c-4.4,0-8,2-8,6.4v12c0,4.4-3.6,8-8,8
		s-8-3.6-8-8v-12c0-13.2,10.8-22.4,24-22.4h136c13.2,0,24,9.2,24,22.4v12C345.8,256.4,342.2,260,337.8,260z"/>
	<path style="fill:#EF934A;" d="M337.8,420c-4.4,0-8-3.6-8-8v-12c0-4.4-3.6-6.4-8-6.4h-136c-4.4,0-8,2-8,6.4v12c0,4.4-3.6,8-8,8
		s-8-3.6-8-8v-12c0-13.2,10.8-22.4,24-22.4h136c13.2,0,24,9.2,24,22.4v12C345.8,416.4,342.2,420,337.8,420z"/>
</g>
<path d="M445.8,480h-384c-11.2,0-20-8.8-20-20V20c0-11.2,8.8-20,20-20h384c11.2,0,20,8.8,20,20v440C465.8,470.8,457,480,445.8,480z
	 M61.8,8c-6.8,0-12,5.2-12,12v440c0,6.8,5.2,12,12,12h384c6.8,0,12-5.2,12-12V20c0-6.8-5.2-12-12-12H61.8z"/>
<path d="M103.8,507.6h-40c-2.4,0-4-1.6-4-4v-24c0-2.4,1.6-4,4-4h40c2.4,0,4,1.6,4,4v24C107.8,506,106.2,507.6,103.8,507.6z
	 M67.8,499.6h32v-16h-32V499.6z"/>
<path d="M439.8,507.6h-40c-2.4,0-4-1.6-4-4v-24c0-2.4,1.6-4,4-4h40c2.4,0,4,1.6,4,4v24C443.8,506,442.2,507.6,439.8,507.6z
	 M403.8,499.6h32v-16h-32V499.6z"/>
<path d="M429.8,163.6h-380c-2.4,0-4-1.6-4-4s1.6-4,4-4h380c2.4,0,4,1.6,4,4S432.2,163.6,429.8,163.6z"/>
<path d="M429.8,323.6h-380c-2.4,0-4-1.6-4-4s1.6-4,4-4h380c2.4,0,4,1.6,4,4S432.2,323.6,429.8,323.6z"/>
<path d="M335.8,108c-6.8,0-12-5.2-12-12V84c0,0,0,0,0-0.4c-0.4,0-1.2,0-1.6,0H185.4c-1.6,0-4.4,0-5.6,0.4v12c0,6.8-5.2,12-12,12
	s-12-5.2-12-12V84c0-16,15.2-24.4,30-24.4h136c16,0,26,9.2,26,24.4v12C347.8,102.4,342.6,108,335.8,108z M322.6,75.6
	c2.8,0,5.2,0,7.2,2s2,4.4,2,6.4v12c0,2.4,1.6,4,4,4s4-1.6,4-4V84c0-14-11.2-16.4-18-16.4h-136c-10.4,0-22,5.2-22,16.4v12
	c0,2.4,1.6,4,4,4s4-1.6,4-4V84c0-2,0.8-4,2-5.2c2.8-2.8,7.6-2.8,11.6-2.8h137.2C322.2,75.6,322.6,75.6,322.6,75.6z"/>
<path d="M335.8,264c-6.8,0-12-5.2-12-12v-12c0,0,0,0,0-0.4c-0.4,0-1.2,0-1.6,0H185.4c-1.6,0-4.4,0-5.6,0.4v12c0,6.8-5.2,12-12,12
	s-12-5.2-12-12v-12c0-16,15.2-24.4,30-24.4h136c16,0,26,9.2,26,24.4v12C347.8,258.4,342.6,264,335.8,264z M322.6,231.6
	c2.8,0,5.2,0,7.2,2s2,4.4,2,6.4v12c0,2.4,1.6,4,4,4s4-1.6,4-4v-12c0-14-11.2-16.4-18-16.4h-136c-10.4,0-22,5.2-22,16.4v12
	c0,2.4,1.6,4,4,4s4-1.6,4-4v-12c0-2,0.8-4,2-5.2c2.8-2.8,7.6-2.8,11.6-2.8h137.2C322.2,231.6,322.6,231.6,322.6,231.6z"/>
<path d="M335.8,424c-6.8,0-12-5.2-12-12v-12c0,0,0,0,0-0.4c-0.4,0-1.2,0-1.6,0H185.4c-1.6,0-4.4,0-5.6,0.4v12c0,6.8-5.2,12-12,12
	s-12-5.2-12-12v-12c0-16,15.2-24.4,30-24.4h136c16,0,26,9.2,26,24.4v12C347.8,418.4,342.6,424,335.8,424z M322.6,391.6
	c2.8,0,5.2,0,7.2,2s2,4.4,2,6.4v12c0,2.4,1.6,4,4,4s4-1.6,4-4v-12c0-14-11.2-16.4-18-16.4h-136c-10.4,0-22,5.2-22,16.4v12
	c0,2.4,1.6,4,4,4s4-1.6,4-4v-12c0-2,0.8-4,2-5.2c2.8-2.8,7.6-2.8,11.6-2.8h137.2C322.2,391.6,322.6,391.6,322.6,391.6z"/>
<g>
</g>
<g>
</g>
<g>
</g>
<g>
</g>
<g>
</g>
<g>
</g>
<g>
</g>
<g>
</g>
<g>
</g>
<g>
</g>
<g>
</g>
<g>
</g>
<g>
</g>
<g>
</g>
<g>
</g>
</svg>
