<?xml version="1.0" encoding="iso-8859-1"?>
<!-- Generator: Adobe Illustrator 19.0.0, SVG Export Plug-In . SVG Version: 6.00 Build 0)  -->
<svg version="1.1" id="Layer_1" xmlns="http://www.w3.org/2000/svg" xmlns:xlink="http://www.w3.org/1999/xlink" x="0px" y="0px"
	 viewBox="0 0 500.004 500.004" style="enable-background:new 0 0 500.004 500.004;" xml:space="preserve">
<g>
	<g>
		<path d="M437.13,0H63.43c-11.028,0-20,8.972-20,20v436.124c0,11.028,8.972,20,20,20h373.704c11.024,0,20-8.972,19.996-20.004V20
			C457.13,8.972,448.158,0,437.13,0z M449.13,456.12c0,6.616-5.384,12-12,12H63.43c-6.616,0-12-5.384-12-12V20
			c0-6.616,5.384-12,12-12h373.7c6.616,0,12,5.384,12,12V456.12z"/>
	</g>
</g>
<g>
	<g>
		<path d="M105.386,468.596H66.378c-2.208,0-4,1.788-4,4v23.408c0,2.212,1.792,4,4,4h39.008c2.212,0,4-1.788,4-4v-23.408
			C109.386,470.384,107.594,468.596,105.386,468.596z M101.386,492.004H70.378v-15.408h31.008V492.004z"/>
	</g>
</g>
<g>
	<g>
		<path d="M433.07,468.596h-39.008c-2.208,0-4,1.788-4,4v23.408c0,2.212,1.792,4,4,4h39.008c2.208,0,4-1.788,4-4v-23.408
			C437.07,470.384,435.278,468.596,433.07,468.596z M429.07,492.004h-31.008v-15.408h31.008V492.004z"/>
	</g>
</g>
<g>
	<g>
		<path d="M421.366,156.516H46.874c-2.208,0-4,1.788-4,4c0,2.212,1.792,4,4,4h374.492c2.208,0,4-1.788,4-4
			C425.366,158.304,423.574,156.516,421.366,156.516z"/>
	</g>
</g>
<g>
	<g>
		<path d="M421.366,312.56H50.774c-2.208,0-4,1.788-4,4c0,2.212,1.792,4,4,4h370.592c2.208,0,4-1.788,4-4
			C425.366,314.348,423.574,312.56,421.366,312.56z"/>
	</g>
</g>
<g>
	<g>
		<path d="M316.598,58.996H183.966c-15.416,0-27.96,12.08-27.96,26.928v11.704c0,6.508,5.292,11.8,11.8,11.8
			s11.804-5.292,11.804-11.8V85.924c0-1.988,2.252-3.324,4.356-3.324h132.628c2.064,0,3.248,1.212,3.248,3.324v11.704
			c0,6.508,5.292,11.8,11.8,11.8c6.512,0,11.808-5.292,11.808-11.8V85.924C343.45,70.824,331.654,58.996,316.598,58.996z
			 M335.45,97.628c0,2.096-1.708,3.8-3.804,3.8c-2.096,0-3.8-1.704-3.8-3.8V85.924c0-6.564-4.732-11.324-11.248-11.324H183.966
			c-6.816,0-12.36,5.076-12.356,11.324v11.704c0,2.096-1.708,3.8-3.804,3.8s-3.8-1.704-3.8-3.8V85.924
			c0-10.436,8.956-18.928,19.96-18.928h132.632c10.748,0,18.852,8.136,18.852,18.928V97.628z"/>
	</g>
</g>
<g>
	<g>
		<path d="M316.598,215.036H183.966c-15.416,0-27.96,12.08-27.96,26.928v11.704c0,6.508,5.292,11.8,11.8,11.8
			s11.804-5.292,11.804-11.8v-11.704c0-1.988,2.252-3.324,4.356-3.324h132.628c2.064,0,3.248,1.212,3.248,3.324v11.704
			c0,6.508,5.292,11.8,11.8,11.8c6.512,0,11.808-5.296,11.808-11.8v-11.704C343.45,226.864,331.654,215.036,316.598,215.036z
			 M335.45,253.668c0,2.096-1.708,3.8-3.804,3.8c-2.096,0-3.8-1.704-3.8-3.8v-11.704c0-6.564-4.732-11.324-11.248-11.324H183.966
			c-6.816,0-12.36,5.076-12.356,11.324v11.704c0,2.096-1.708,3.8-3.804,3.8s-3.8-1.704-3.8-3.8v-11.704
			c0-10.436,8.956-18.928,19.96-18.928h132.632c10.748,0,18.852,8.136,18.852,18.928V253.668z"/>
	</g>
</g>
<g>
	<g>
		<path d="M316.598,371.072H183.966c-15.416,0-27.96,12.08-27.96,26.928v11.704c0,6.508,5.292,11.804,11.8,11.804
			s11.804-5.296,11.804-11.804V398c0-1.988,2.252-3.324,4.356-3.324h132.628c2.064,0,3.248,1.212,3.248,3.324v11.704
			c0,6.508,5.292,11.804,11.8,11.804c6.512,0,11.808-5.296,11.808-11.804V398C343.45,382.9,331.654,371.072,316.598,371.072z
			 M335.45,409.704c0,2.096-1.708,3.804-3.804,3.804c-2.096,0-3.8-1.708-3.8-3.804V398c0-6.564-4.732-11.324-11.248-11.324H183.966
			c-6.816,0-12.36,5.08-12.356,11.324v11.704c0,2.096-1.708,3.804-3.804,3.804s-3.8-1.708-3.8-3.804V398
			c0-10.436,8.956-18.928,19.96-18.928h132.632c10.748,0,18.852,8.136,18.852,18.928V409.704z"/>
	</g>
</g>
<g>
</g>
<g>
</g>
<g>
</g>
<g>
</g>
<g>
</g>
<g>
</g>
<g>
</g>
<g>
</g>
<g>
</g>
<g>
</g>
<g>
</g>
<g>
</g>
<g>
</g>
<g>
</g>
<g>
</g>
</svg>
