<svg width="26" height="26" viewBox="0 0 26 26" fill="none" xmlns="http://www.w3.org/2000/svg">
<path d="M21.7995 0.900046V0.896875H21.6495H4.35065C2.42028 0.896875 0.85 2.46695 0.85 4.39734V17.8349C0.85 19.7653 2.42028 21.3354 4.35065 21.3354H13.9521L14.2655 24.3494L14.4147 24.3339L14.2655 24.3494C14.2972 24.6547 14.4905 24.9192 14.7713 25.0425L14.7714 25.0425C14.8814 25.0907 14.998 25.1143 15.114 25.1143C15.2947 25.1143 15.474 25.057 15.6239 24.9452L20.467 21.3354H21.6495C23.5797 21.3354 25.15 19.7653 25.15 17.8349V4.39734C25.15 2.51721 23.6604 0.978871 21.7995 0.900046ZM19.6741 19.7984L15.8073 22.6804L15.5697 20.394L15.5697 20.394C15.5243 19.9594 15.158 19.6293 14.721 19.6293H4.35065C3.36122 19.6291 2.55625 18.8241 2.55625 17.8349V4.39734C2.55625 3.40811 3.36121 2.60312 4.35065 2.60312H21.6495C22.6388 2.60312 23.4438 3.4081 23.4438 4.39734V17.8349C23.4438 18.8241 22.6388 19.6291 21.6495 19.6291H20.184C20.0002 19.6291 19.8215 19.6885 19.6741 19.7984Z" fill="#6E8089" stroke="#6E8089" stroke-width="0.3"/>
<path d="M6.40561 6.44527C5.56322 7.28975 5.09462 8.41531 5.08629 9.61279L5.08629 9.61279C5.0737 11.4361 6.3985 13.3707 8.93252 15.3653L8.93252 15.3653C10.7393 16.7873 12.5212 17.7321 12.6023 17.7746M6.40561 6.44527L6.5118 6.55121L6.40561 6.44527ZM6.40561 6.44527C7.25148 5.59713 8.37769 5.12954 9.57534 5.12954C10.9189 5.12954 12.1633 5.73332 13 6.72167C13.8366 5.73332 15.081 5.12954 16.4246 5.12954C17.6326 5.12954 18.7673 5.60178 19.6184 6.45888C20.4614 7.30779 20.9216 8.43252 20.9135 9.62457C20.9009 11.4418 19.5713 13.3723 17.0493 15.3642C15.2478 16.7875 13.477 17.7325 13.4 17.7734L13.3999 17.7735C13.2748 17.8399 13.1372 17.873 13 17.873C12.8635 17.873 12.7269 17.8404 12.6023 17.7746M12.6023 17.7746C12.6022 17.7746 12.6022 17.7746 12.6021 17.7745L12.6722 17.6419L12.6025 17.7747C12.6025 17.7747 12.6024 17.7747 12.6023 17.7746ZM13.0966 6.83982C13.0637 6.87917 13.0315 6.91914 13 6.95972C12.9684 6.91914 12.9362 6.87917 12.9033 6.83982H13.0966ZM6.79272 9.62459L6.79272 9.62457C6.80333 8.08604 8.05315 6.83597 9.57534 6.83597C10.7494 6.83597 11.8027 7.58146 12.1957 8.69125L12.1957 8.69126C12.3164 9.03184 12.6385 9.25956 13 9.25956C13.3614 9.25956 13.6836 9.03184 13.8042 8.69126L13.6628 8.64117L13.8042 8.69125C14.1972 7.58146 15.2505 6.83597 16.4246 6.83597C17.1751 6.83597 17.8789 7.12875 18.4077 7.66122C18.9288 8.18606 19.2124 8.87869 19.2072 9.61277L19.2072 9.6128C19.2031 10.2076 18.9376 10.8868 18.3995 11.6332C17.8623 12.3782 17.0614 13.1789 16.007 14.0134C14.8138 14.9578 13.6053 15.6928 12.9984 16.0431C12.3915 15.6955 11.1844 14.9662 9.98781 14.0245C8.92628 13.1889 8.12234 12.3877 7.58609 11.6426C7.04887 10.8963 6.78854 10.2179 6.79272 9.62459Z" fill="#6E8089" stroke="#6E8089" stroke-width="0.3"/>
</svg>
